<?xml version="1.0" encoding="UTF-8"?>
<svg width="512px" height="512px" viewBox="0 0 512 512" version="1.1" xmlns="http://www.w3.org/2000/svg" xmlns:xlink="http://www.w3.org/1999/xlink">
    <!-- Generator: Sketch 61 (89581) - https://sketch.com -->
    <title>twitter (1) copy</title>
    <desc>Created with Sketch.</desc>
    <g id="Page-1" stroke="none" stroke-width="1" fill="none" fill-rule="evenodd">
        <g id="twitter-(1)-copy" fill="#F1A205" fill-rule="nonzero">
            <path d="M256,0 C397.363281,0 512,114.636719 512,256 C512,397.363281 397.363281,512 256,512 C114.636719,512 0,397.363281 0,256 C0,114.636719 114.636719,0 256,0 Z M218.503176,273.36235 C190.70888,295.970793 143.935994,329.915618 118.532195,348.136591 C117.118002,349.156615 116.207011,350.727634 116.029811,352.464862 C115.858291,354.202091 116.431919,355.927366 117.621205,357.208087 C122.206826,362.159643 128.667248,365 135.334971,365 L377.660139,365 C384.327863,365 390.782037,362.159643 395.379018,357.208657 C396.562056,355.933627 397.141932,354.208352 396.970411,352.471124 C396.792643,350.734465 395.881653,349.157185 394.467459,348.137161 C369.105121,329.952047 322.385055,296.048775 294.496479,273.362919 C292.224682,271.507296 288.93512,271.566493 286.699104,273.49953 C281.226914,278.284307 276.64754,282.316589 273.399439,285.245173 C263.424547,294.269425 249.580786,294.269425 239.582609,285.23322 C236.346435,282.310328 231.767629,278.266092 226.294871,273.498961 C224.076461,271.553971 220.78122,271.494773 218.503176,273.36235 Z M391.088683,183.445555 C365.11768,205.677884 330.899567,235.05237 305.093349,257.468782 C303.735572,258.644513 302.97147,260.371921 303,262.182537 C303.03016,263.987453 303.85916,265.690925 305.258133,266.818784 C329.236489,286.213513 365.371064,312.892879 391.465091,331.854474 C392.505714,332.614168 393.739902,333 394.980298,333 C395.921035,333 396.861208,332.780583 397.725761,332.329212 C399.736466,331.290259 401,329.200386 401,326.920732 L401,188.081802 C401,185.713241 399.635452,183.558397 397.50793,182.566748 C395.3742,181.5637 392.864063,181.913627 391.088683,183.445555 Z M114.491849,182.56152 C112.363898,183.553201 111,185.708111 111,188.076745 L111,326.920543 C111,329.200268 112.264018,331.290206 114.274032,332.329191 C115.137965,332.780576 116.078643,333 117.01932,333 C118.259638,333 119.493748,332.614157 120.534305,331.853868 C146.632887,312.891686 182.77138,286.212065 206.74201,266.816165 C208.140894,265.688271 208.969842,263.984177 209,262.179775 C209.028528,260.369103 208.264474,258.641641 206.906784,257.465873 C181.101635,235.048768 146.879483,205.673372 120.910689,183.440354 C119.123571,181.908379 116.60795,181.57041 114.491849,182.56152 Z M377.688863,147 L135.310569,147 C127.878444,147 120.942816,150.420582 116.291986,156.386898 C114.279864,158.968038 114.65877,162.679855 117.144098,164.791593 C157.062729,198.775271 227.107515,258.562926 247.694553,277.20481 C250.458238,279.720851 253.422454,281 256.499716,281 C259.570729,281 262.529832,279.732843 265.287268,277.228794 C285.891917,258.568637 355.936702,198.775271 395.855902,164.791593 C398.34123,162.679855 398.720136,158.968038 396.708014,156.386327 C392.056616,150.420582 385.121556,147 377.688863,147 Z" id="Shape"></path>
        </g>
    </g>
</svg>